 http://www.imdb.com/title/tt0462538/

The Simpsons had already ruled TV land for many years by the time they finally attempted to conquer the movie world as well. It was never any big secret that a Simpsons movie was in the works: Fox registered the domain name "Simpsonsmovie.com" in 1997, a full nine years before the film was finally greenlighted. When creator/producer Matt Groening’s creation finally made it to the big screen in 2007, it only turned out to be the biggest hit of the summer, raking in over $100 million gross in box-office receipts in its first week, before heading on to do over $500 million worldwide

Format : MPEG-4
Format profile : Base Media / Version 2
Codec
ID : mp42
File size : 900 MiB
Duration : 1h 23mn
Overall bit rate : 1 512 Kbps
Encoded date : UTC 2010-02-13 07:52:45
Tagged date : UTC 2010-02-13 09:54:15
Writing application : HandBrake 0.9.3 2008112300

Video
ID : 1
Format : AVC
Format/Info : Advanced Video Codec
Format profile : Main@L4.0
Format settings, CABAC : Yes
Format settings, ReFrames : 3 frames
Codec ID : avc1
Codec ID/Info : Advanced Video Coding
Duration : 1h 23mn
Bit rate mode : Variable
Bit rate : 1 348 Kbps
Width : 720 pixels
Height : 428 pixels
Display aspect ratio : 2.35:1
Frame rate mode : Variable
Frame rate : 25.000 fps
Minimum frame rate : 12.500 fps
Maximum frame rate : 89.054 fps
Resolution : 8 bits
Colorimetry : 4:2:0
Scan type : Progressive
Bits/(Pixel*Frame) : 0.175
Stream size : 802 MiB (89%)
Writing library : x264 core 65

Language : English
Encoded date : UTC 2010-02-13 07:52:45
Tagged date : UTC 2010-02-13 09:54:15
Color primaries : BT.601-6 525, BT.1358 525, BT.1700 NTSC, SMPTE 170M
Transfer characteristics : BT.709-5, BT.1361
Matrix coefficients : BT.601-6 525, BT.1358 525, BT.1700 NTSC, SMPTE 170M

Audio
ID : 2
Format : AAC
Format/Info : Advanced Audio Codec
Format version : Version 4
Format profile : LC
Format settings, SBR : No
Codec ID : 40
Duration : 1h 23mn
Bit rate mode : Variable
Bit rate : 160 Kbps
Maximum bit rate : 260 Kbps
Channel(s) : 2 channels
Channel positions : L R
Sampling rate : 48.0 KHz
Stream size : 95.2 MiB (11%)
Language : English
Encoded date : UTC 2010-02-13 07:52:45
Tagged date : UTC 2010-02-13 09:54:11